<svg viewBox="0 0 100 98" xmlns="http://www.w3.org/2000/svg" class="block -mb-6 -ml-2 xl:ml-10 w-17 lg:-mb-10 lg:w-20 lg:w-23"><mask id="logo_svg__a" fill="#fff"><path d="M0 0h99.86v97.302H0z" fill-rule="evenodd"></path></mask><mask id="logo_svg__b" fill="#fff"><path d="M0 97.738h99.86V0H0z" fill-rule="evenodd"></path></mask><g fill="none" fill-rule="evenodd"><path d="M13.61 97.302a9.38 9.38 0 01-9.365-8.873L.013 9.883A9.418 9.418 0 012.57 2.93 9.415 9.415 0 019.378 0h81.103c2.56 0 5.04 1.065 6.802 2.921a9.42 9.42 0 012.564 6.945L95.76 88.41a9.376 9.376 0 01-9.366 8.891z" fill="#cd2b42" mask="url(#logo_svg__a)"></path><path d="M86.393 94.3H13.61a6.377 6.377 0 01-6.368-6.034L3.01 9.722a6.377 6.377 0 016.368-6.72H90.48A6.378 6.378 0 0196.85 9.71l-4.089 78.545a6.377 6.377 0 01-6.368 6.046" fill="#ffdd17"></path><path d="M51.64 63.517c-20.525 0-42.618-2.911-42.618-9.305 0-6.393 22.093-9.307 42.618-9.307 16.715 0 31.866 2.004 38.6 5.104l.344.158a.563.563 0 01.295.7l-1.187 3.345 1.187 3.344a.563.563 0 01-.295.7l-.344.158c-6.734 3.1-21.885 5.103-38.6 5.103" fill="#fefefe"></path><path d="M51.64 62.539c14.249 0 26.797-1.436 34.3-3.62H17.066c7.476 2.217 20.169 3.62 34.573 3.62M10.144 53.633h78.714l.856-2.407a.377.377 0 00-.207-.472 26.354 26.354 0 00-1.587-.614H15.13c-2.837 1.035-4.571 2.217-4.986 3.493M51.64 45.884c-14.405 0-27.098 1.403-34.574 3.62H85.94c-7.502-2.184-20.05-3.62-34.3-3.62M15.13 58.283h72.79c.563-.2 1.101-.405 1.587-.614a.376.376 0 00.207-.471l-.855-2.408H10.144c.415 1.276 2.149 2.458 4.987 3.493M96.83 95.25c.266 0 .393.098.393.295 0 .192-.145.291-.424.291h-.2v-.575c.036-.01.112-.011.231-.011m-.049.909c.21 0 .329.101.364.299.043.298.078.474.11.517h.431a2.358 2.358 0 01-.102-.492c-.03-.291-.139-.451-.314-.485v-.022c.261-.072.384-.228.384-.454 0-.222-.07-.368-.209-.458-.132-.091-.35-.135-.63-.135-.188 0-.401.016-.636.051v1.995h.42v-.816zm-1.137 1.055c.344.344.768.523 1.254.523.493 0 .91-.18 1.245-.523.344-.356.516-.778.516-1.284a1.74 1.74 0 00-.516-1.266 1.665 1.665 0 00-1.245-.53c-.486 0-.91.176-1.254.53-.35.35-.52.772-.52 1.266 0 .504.17.926.52 1.284m2.212-.256a1.28 1.28 0 01-.948.418c-.389 0-.7-.143-.961-.418a1.426 1.426 0 01-.397-1.015c0-.4.133-.744.399-1.021.262-.28.582-.423.96-.423.363 0 .675.143.947.423.265.277.397.62.397 1.021 0 .397-.132.735-.397 1.015" fill="#cd2b42"></path><path d="M20.378 40.07V15.196c0-.31.252-.563.563-.563h8.413c.31 0 .563.252.563.563V32.09h8.766c.31 0 .562.252.562.563v7.418c0 .31-.251.562-.562.562H20.941a.563.563 0 01-.563-.562M49.018 37.006c-3.17 0-6.38-1.926-6.38-5.609 0-1.92.808-3.583 2.351-4.863-.56-.791-1.076-1.734-1.076-3.162 0-2.681 2.038-5.53 5.815-5.53 3.155 0 5.446 2.17 5.446 5.162 0 1.125-.248 2.125-.762 3.033l3.267.161c.23.012.395.225.349.45l-.165.81a19.262 19.262 0 01-1.296 4.07l.868-.256a.375.375 0 01.481.36v3.873c0 .1-.04.195-.11.266l-.208.207c-.682.682-1.817.925-2.581.925-.984 0-1.806-.245-2.58-.78a6.937 6.937 0 01-3.419.883M64.232 40.07V15.196c0-.31.252-.563.563-.563h8.413c.31 0 .563.252.563.563V32.09h8.766c.31 0 .563.252.563.563v7.418c0 .31-.252.562-.563.562H64.795a.563.563 0 01-.563-.562" fill="#fefefe"></path><g fill="#cd2b42"><path d="M22.857 78.116v-8.49c0-.104.084-.188.187-.188h2.017c.104 0 .188.084.188.188v3.232h3.532v-3.232c0-.104.083-.188.187-.188h2.017c.103 0 .187.084.187.188v8.49a.188.188 0 01-.187.187h-2.017a.187.187 0 01-.187-.187v-3.317h-3.532v3.317a.188.188 0 01-.188.187h-2.017a.188.188 0 01-.187-.187M36.776 74.8h2.082l-1.013-2.617h-.056zm2.496-5.243l3.382 8.49a.188.188 0 01-.175.256h-2.14a.188.188 0 01-.176-.12l-.615-1.596h-3.461l-.615 1.596a.188.188 0 01-.176.12h-2a.187.187 0 01-.175-.257l3.383-8.49a.188.188 0 01.174-.118h2.419c.077 0 .146.047.175.119zM52.23 74.996h.057l1.371-5.416a.188.188 0 01.182-.141h1.919c.122 0 .212.116.181.234l-2.223 8.49a.188.188 0 01-.182.14h-2.257a.187.187 0 01-.182-.14l-1.44-5.46h-.057l-1.44 5.46a.187.187 0 01-.182.14h-2.215a.188.188 0 01-.182-.14l-2.223-8.49a.188.188 0 01.182-.234h2.002c.086 0 .161.058.182.14l1.371 5.417h.057l1.427-5.418a.187.187 0 01.181-.14h1.863c.085 0 .16.058.182.14zM60.313 74.8h2.083l-1.013-2.617h-.056zm2.496-5.243l3.382 8.49a.187.187 0 01-.174.256h-2.142a.188.188 0 01-.175-.12l-.615-1.596h-3.461l-.615 1.596a.187.187 0 01-.175.12h-2a.188.188 0 01-.175-.257l3.382-8.49a.188.188 0 01.175-.118h2.419c.077 0 .145.047.174.119zM70.53 69.626v8.49a.188.188 0 01-.187.187h-2.017a.187.187 0 01-.187-.187v-8.49c0-.103.084-.188.187-.188h2.017c.104 0 .188.085.188.188M73.226 71.987h-1.1a.138.138 0 01-.138-.138v-.937c0-.575.166-1.404 1.231-1.465a.138.138 0 01.145.138v2.264a.138.138 0 01-.138.138M77.378 69.626v8.49a.188.188 0 01-.188.187h-2.017a.188.188 0 01-.187-.187v-8.49c0-.103.084-.188.187-.188h2.017c.104 0 .188.085.188.188M28.457 15.718h-6.619a.375.375 0 00-.375.375v23.08c0 .207.168.375.375.375h15.948a.376.376 0 00.375-.376V33.55a.375.375 0 00-.375-.375h-8.954v-17.08a.375.375 0 00-.375-.376M49.649 25.188c-.42-.552-.79-1.315-.79-2.026 0-.685.264-1.211.948-1.211.605 0 .947.526.947 1.16 0 .814-.264 1.445-1.105 2.077m-1.701 6.668c-.54-.788.045-1.959.678-2.292l1.834 2.592c-.418.263-1.77.782-2.512-.3m7.058.34c.806-1.384 1.4-3.117 1.75-4.74a.188.188 0 00-.176-.226l-2.83-.14a.187.187 0 00-.19.143c-.203.81-.427 1.549-.675 2.218l-1.428-1.84c1.658-1.186 2.632-2.581 2.632-4.607 0-2.314-1.677-4.078-4.361-4.078-2.342 0-4.73 1.605-4.73 4.446 0 1.578.752 2.35 1.515 3.4-1.794 1.117-2.791 2.68-2.791 4.625 0 2.973 2.586 4.525 5.296 4.525 1.342 0 2.499-.42 3.499-1.131.868.815 1.63 1.027 2.5 1.027.648 0 1.367-.214 1.754-.55a.183.183 0 00.06-.14v-2.302a.188.188 0 00-.235-.181 2.68 2.68 0 01-.658.094c-.527 0-.643-.175-.932-.543M72.311 15.718h-6.619a.375.375 0 00-.375.375v23.08c0 .207.168.375.375.375H81.64a.375.375 0 00.375-.376V33.55a.375.375 0 00-.375-.375h-8.954v-17.08a.375.375 0 00-.375-.376M33.796 89.374c.034.453.384.609.786.609.34 0 .557-.12.557-.322 0-.212-.212-.247-.488-.298l-.66-.115c-.591-.11-1.005-.442-1.005-1.074 0-.734.574-1.177 1.476-1.177.999 0 1.538.488 1.556 1.292l-.896.017c-.028-.373-.299-.545-.671-.545-.322 0-.506.126-.506.327 0 .166.138.23.362.27l.683.12c.758.133 1.102.529 1.102 1.12 0 .77-.666 1.154-1.51 1.154-.981 0-1.682-.477-1.682-1.35z"></path><path d="M37.362 90.683h.976v-3.617h-.976zM42.068 89.07v-2.004h.895v3.617h-.78L40.62 88.54v2.142h-.895v-3.617h.93zM46.043 86.997c1.108 0 1.7.706 1.768 1.608l-.936.034c-.057-.402-.275-.775-.838-.775-.534 0-.844.396-.844 1.01 0 .615.31 1.01.844 1.01.563 0 .78-.372.838-.774l.936.04c-.069.901-.66 1.602-1.768 1.602-1.056 0-1.855-.764-1.855-1.878 0-1.114.799-1.877 1.855-1.877M51.877 90.683H49.03v-3.617h2.796v.804h-1.837v.591h1.418v.792h-1.418v.626h1.888zM54.743 87.617c.505 0 .758-.172.89-.551h.763v3.617h-.976V88.26h-.677zM59.096 87.76c-.321 0-.505.19-.505.466 0 .287.184.476.505.476.31 0 .494-.19.494-.476 0-.27-.184-.465-.494-.465m.65 1.326c-.168.207-.466.333-.816.333-.793 0-1.263-.482-1.263-1.172 0-.78.591-1.25 1.412-1.25 1.016 0 1.562.711 1.562 1.86 0 1.101-.535 1.894-1.585 1.894-.78 0-1.286-.408-1.355-1.132l.907-.016c.029.246.196.372.465.372.402 0 .637-.361.672-.89M64.279 87.916h-1.55a4.143 4.143 0 01-.075.482c.127-.098.322-.178.637-.178.838 0 1.258.546 1.258 1.251 0 .804-.592 1.28-1.39 1.28-.959 0-1.464-.504-1.435-1.337l.936.063c.006.31.195.488.5.488.292 0 .493-.184.493-.494 0-.281-.167-.522-.488-.522-.23 0-.362.092-.453.23l-.936-.07c.086-.493.218-1.446.235-2.043h2.268zM68.405 89.873v.81h-2.802v-.7l1-.787c.55-.442.734-.632.734-.976 0-.224-.103-.396-.39-.396-.299 0-.413.23-.413.523a.95.95 0 00.04.298l-.953-.029a1.73 1.73 0 01-.046-.338c0-.775.574-1.28 1.406-1.28.878 0 1.378.493 1.378 1.165 0 .626-.321.918-.901 1.366l-.448.344z" mask="url(#logo_svg__b)"></path></g></g></svg>