<?xml version="1.0" encoding="utf-8"?>
<!-- Generator: Adobe Illustrator 25.0.0, SVG Export Plug-In . SVG Version: 6.00 Build 0)  -->
<svg version="1.1" id="Layer_1" xmlns="http://www.w3.org/2000/svg" xmlns:xlink="http://www.w3.org/1999/xlink" x="0px" y="0px"
	 viewBox="0 0 305.1 150" style="enable-background:new 0 0 305.1 150;" xml:space="preserve">
<style type="text/css">
	.st0{fill:#D2A565;}
	.st1{fill:#484323;}
	.st2{enable-background:new    ;}
</style>
<g>
	<path class="st0" d="M2,87.3c0-16.9,13.1-27.4,28.2-27.4c14.4,0,26.6,9.2,26.6,26.6c0,17.2-12.5,27.5-28.1,27.5
		C13.3,113.9,2,104.2,2,87.3z M30.3,111.3c13.3,0,18.3-11.4,18.3-22.9c0-14.8-7.4-26-19.7-26c-11.8,0-18.7,9.8-18.7,23.4
		C10.3,101.8,18.4,111.3,30.3,111.3z"/>
	<path class="st0" d="M66,111.3l2.3-0.2c2.5-0.3,2.5-0.6,2.5-8.4V80.4c0-7.8,0-8.1-2.5-8.4L66,71.8v-1.4h15.5v1.4L79.2,72
		c-2.5,0.3-2.5,0.6-2.5,8.4v29.7c2.3,0.4,4.7,0.8,7,0.8c9.5,0,10.1-3.8,11.4-9.1l1.6,0.3c-0.2,4.1-1,7.1-2.1,10.6H66V111.3z"/>
	<path class="st0" d="M106.9,111.3l2.8-0.2c3.1-0.1,3.1-1.9,3.1-3.9V99c0-2.3-1.5-5.2-2.9-7.9l-8.5-15.9c-0.9-1.7-1.7-2.9-3.4-3.1
		l-1.9-0.2v-1.4h16.3v1.4l-2.4,0.2c-1,0.1-2.9,0.3-2.9,1.6c0,1.4,8.5,16.9,10.2,19.6c1.6-2.6,9.7-18.2,9.7-19.2
		c0-1.3-1.3-1.6-2.5-1.8l-2.9-0.4v-1.4h13.8v1.4l-1.7,0.4c-0.7,0.1-1.4,0.5-1.9,1c-2.6,2.4-4.7,6.3-7.9,12.4l-2.9,5.4
		c-1.5,2.7-2.3,5.4-2.3,7.9v8.2c0,2,0,3.8,3.1,3.9l2.8,0.2v1.4h-17.7L106.9,111.3L106.9,111.3z"/>
	<path class="st0" d="M138.9,111.3l1.6-0.4c1-0.2,1.6-0.4,2-0.8c0.6-0.6,1.1-4.7,1.5-10.6l1-16.1c0.3-4.4,0.7-11.3,0.7-13l1.7-0.6
		c1.9,3.3,16.5,30.9,18.5,34.4c2-3.3,16.4-30.6,17.6-33.9l1.7-0.6c0,0.5,0.4,7.7,0.9,16.1l0.6,11.1c0.3,5.4,0.7,11.6,1.2,12.6
		c0.3,0.6,1.3,1,2.4,1.2l1.9,0.4v1.4h-16.4v-1.4l2.5-0.4c2.8-0.3,3-1.3,3-4.3c0-7.1-1.1-20.5-1.1-24.6h-0.1
		c-1.1,2.8-7.6,15.4-14,27.8c-0.3,0.6-0.6,1.4-0.9,2l-1.8,0.8c-1.4-2.9-9.5-18.6-14-27c-0.6-1.2-1.2-2.4-1.7-3.7h-0.1
		c-0.2,3.6-1.1,21.8-1.1,23.7c0,3.8,0,4.9,3,5.2l2.6,0.4v1.4h-13.2L138.9,111.3L138.9,111.3z"/>
	<path class="st0" d="M200.3,111.3l2.3-0.2c2.5-0.3,2.5-0.6,2.5-8.4V80.4c0-7.8,0-8.1-2.5-8.4l-2.3-0.2v-1.4H217
		c6.1,0,15.6,1,15.6,11.5c0,8.7-9.7,12.7-15.7,12.7h-1.1v-1.2c2.8,0,10.1-1.3,10.1-10.9c0-7.5-5.1-9.8-10.8-9.8
		c-1.3,0-2.7,0.3-4,0.5v29.6c0,7.8,0,8.1,3.5,8.4l2.3,0.2v1.4h-16.6V111.3z"/>
	<path class="st0" d="M240,111.3l2.3-0.2c2.5-0.3,2.5-0.6,2.5-8.4V80.4c0-7.8,0-8.1-2.5-8.4l-2.3-0.2v-1.4h15.6v1.4l-2.3,0.2
		c-2.5,0.3-2.5,0.6-2.5,8.4v22.3c0,7.8,0,8.1,2.5,8.4l2.3,0.2v1.4H240V111.3z"/>
	<path class="st0" d="M260.8,111.3l1.2-0.2c2.4-0.4,2.8-1.1,4.3-4.8l13.3-32.4c0.5-1.3,1-2.6,1.5-3.8l1.9-0.6l14.3,37.1
		c1,2.6,1.6,4,3.3,4.4l2.6,0.4v1.4h-15.9v-1.4l2.9-0.5c1.2-0.2,2-0.5,2-1.2c0-0.4-0.3-0.9-0.4-1.3l-4.5-12.1
		c-2.4-0.4-4.7-0.6-7.1-0.6c-2.2,0-4.5,0.3-6.7,0.6l-3.3,8.9c-0.8,2-1.3,3.8-1.3,4.3c0,1.2,0.8,1.4,1.5,1.5l3.8,0.5v1.4h-13.4
		L260.8,111.3L260.8,111.3z M274.3,93.7c1.9-0.1,3.9-0.3,5.8-0.3c2,0,4.1,0.1,6.1,0.3l-5.9-15.5L274.3,93.7z"/>
</g>
<g>
	<g>
		<polygon class="st1" points="36.8,3.5 62.3,11.6 73.3,0.6 197.9,40.2 0,40.2 		"/>
	</g>
	<g>
		<polygon class="st1" points="131.7,12.9 217.6,40.2 304.9,40.2 178.3,0 167.3,11 141.8,2.9 		"/>
	</g>
	<rect y="46.9" class="st1" width="305.1" height="3.7"/>
</g>
<g class="st2">
	<path class="st1" d="M5.9,129.8v7.1h7l0.5,2.9H5.9V150H2.8v-23.1h12v2.9H5.9z"/>
	<path class="st1" d="M20.6,150v-23.1h3.1V150H20.6z"/>
	<path class="st1" d="M46.7,150l-12.7-18v18h-2.9v-23.1H34l12.3,17.3v-17.3h2.9V150H46.7z"/>
	<path class="st1" d="M63.6,126.8h3.1l8.9,22.8l-3,0.7l-2.7-7.2h-9.5l-2.6,6.9h-3.2L63.6,126.8z M61.4,140.3h7.4l-3.7-9.8
		L61.4,140.3z"/>
	<path class="st1" d="M96.6,150l-12.7-18v18H81v-23.1h2.8l12.3,17.3v-17.3H99V150H96.6z"/>
	<path class="st1" d="M115.9,150.5c-6.5,0-10.7-4.8-10.7-12c0-7.2,4.3-12,10.7-12c2.7,0,4.8,0.7,6.6,1.9l-0.5,3.2
		c-1.7-1.3-3.6-2.2-6.1-2.2c-4.7,0-7.5,3.5-7.5,9.1s2.8,9.1,7.5,9.1c2.5,0,4.7-1,6.5-2.3l0.5,3C121.1,149.5,118.6,150.5,115.9,150.5
		z"/>
	<path class="st1" d="M130.3,150v-23.1h3.1V150H130.3z"/>
	<path class="st1" d="M148.8,126.8h3.1l8.9,22.8l-3,0.7l-2.7-7.2h-9.5l-2.6,6.9h-3.2L148.8,126.8z M146.6,140.3h7.4l-3.7-9.8
		L146.6,140.3z"/>
	<path class="st1" d="M166.9,150v-23.1h3.1v20.2h8.3l0.4,2.9H166.9z"/>
	<path class="st1" d="M203.5,150.5c-7.3,0-11.2-4.8-11.2-12c0-7.2,4.1-12,11-12c3.1,0,5.2,0.8,7,2l-0.5,3.2
		c-1.7-1.3-3.8-2.3-6.6-2.3c-5.1,0-7.7,3.5-7.7,9.1s2.7,9.1,8,9.1c2,0,3.3-0.4,4.7-1.1v-6.1h-5.3l-0.4-2.9h8.9v10.8
		C209.3,149.5,206.5,150.5,203.5,150.5z"/>
	<path class="st1" d="M230.8,150.3l-7.1-10h-2.4v9.7h-3.1v-23.1h6.3c4.7,0,7.7,2.3,7.7,6.6c0,3.5-2,5.6-5.1,6.4l6.9,9.7L230.8,150.3
		z M224.3,129.7h-3v7.9h2.7c3,0,5-1.4,5-4C229,131.1,227.4,129.7,224.3,129.7z"/>
	<path class="st1" d="M248.3,150.5c-6.5,0-10.6-4.8-10.6-12c0-7.2,4.2-12,10.7-12c6.5,0,10.6,4.8,10.6,12S254.8,150.5,248.3,150.5z
		 M248.3,129.4c-4.6,0-7.4,3.5-7.4,9.1s2.8,9.1,7.4,9.1c4.6,0,7.4-3.5,7.4-9.1S252.8,129.4,248.3,129.4z"/>
	<path class="st1" d="M273.9,150.5c-5.6,0-8.9-3.5-8.9-9.2v-14.4h3.1v14c0,4,1.8,6.7,5.8,6.7c3.9,0,5.9-2.4,5.9-6.6v-14.1h3.1v14.2
		C282.9,147,279.5,150.5,273.9,150.5z"/>
	<path class="st1" d="M295.5,140.7h-2.4v9.4h-3.1v-23.1h6.1c4.9,0,7.8,2.4,7.8,6.7C303.9,138.3,300.5,140.7,295.5,140.7z
		 M295.9,129.7h-2.8v8.2h2.6c3.1,0,5-1.3,5-4.2C300.7,131.1,299,129.7,295.9,129.7z"/>
</g>
</svg>
